<svg viewBox="0 0 64 64" fill="none" xmlns="http://www.w3.org/2000/svg">
<path d="M28 2.30941C30.4753 0.880344 33.5248 0.880345 36 2.30941L55.7129 13.6906C58.1881 15.1197 59.7129 17.7607 59.7129 20.6188V43.3812C59.7129 46.2393 58.1881 48.8803 55.7129 50.3094L36 61.6906C33.5248 63.1197 30.4753 63.1197 28 61.6906L8.28723 50.3094C5.81202 48.8803 4.28723 46.2393 4.28723 43.3812V20.6188C4.28723 17.7607 5.81202 15.1197 8.28723 13.6906L28 2.30941Z" fill="#EB5757"/>
<path fill-rule="evenodd" clip-rule="evenodd" d="M54.2129 16.2887L34.5 4.90748C32.953 4.01432 31.0471 4.01432 29.5 4.90748L9.78723 16.2887C8.24023 17.1818 7.28723 18.8325 7.28723 20.6188V43.3812C7.28723 45.1675 8.24023 46.8182 9.78723 47.7113L29.5 59.0925C31.0471 59.9857 32.953 59.9857 34.5 59.0925L54.2129 47.7113C55.7599 46.8182 56.7129 45.1675 56.7129 43.3812V20.6188C56.7129 18.8325 55.7599 17.1818 54.2129 16.2887ZM36 2.30941C33.5248 0.880345 30.4753 0.880344 28 2.30941L8.28723 13.6906C5.81202 15.1197 4.28723 17.7607 4.28723 20.6188V43.3812C4.28723 46.2393 5.81202 48.8803 8.28723 50.3094L28 61.6906C30.4753 63.1197 33.5248 63.1197 36 61.6906L55.7129 50.3094C58.1881 48.8803 59.7129 46.2393 59.7129 43.3812V20.6188C59.7129 17.7607 58.1881 15.1197 55.7129 13.6906L36 2.30941Z" fill="#00144B"/>
<path fill-rule="evenodd" clip-rule="evenodd" d="M52.6147 18.366L33.5 7.33013C32.5718 6.79423 31.4282 6.79423 30.5 7.33013L11.3853 18.366C10.4571 18.9019 9.88525 19.8923 9.88525 20.9641V43.0359C9.88525 44.1077 10.4571 45.0981 11.3853 45.634L30.5 56.6699C31.4282 57.2058 32.5718 57.2058 33.5 56.6699L52.6147 45.634C53.5429 45.0981 54.1147 44.1077 54.1147 43.0359V20.9641C54.1147 19.8923 53.5429 18.9019 52.6147 18.366ZM35 4.73205C33.1436 3.66026 30.8564 3.66026 29 4.73205L9.88525 15.768C8.02885 16.8398 6.88525 18.8205 6.88525 20.9641V43.0359C6.88525 45.1795 8.02885 47.1603 9.88525 48.2321L29 59.268C30.8564 60.3397 33.1436 60.3397 35 59.268L54.1147 48.2321C55.9711 47.1603 57.1147 45.1795 57.1147 43.0359V20.9641C57.1147 18.8205 55.9711 16.8398 54.1147 15.768L35 4.73205Z" fill="#FF9393"/>
</svg>
